<svg id="Layer_1" enable-background="new 0 0 512 512" height="512" viewBox="0 0 512 512" width="512" xmlns="http://www.w3.org/2000/svg"><g><g><path d="m160.35 13.553h15v97.657h-15z"/><path d="m337.35 13.553h15v97.657h-15z"/><path d="m248.85.25h15v98.657h-15z"/><path d="m391.983 444.506c-77.339 69.605-194.512 69.709-271.966 0l-2.139-1.926h-102.878v-145.5h50.01v-15h-65.01v175.5h112.15c82.447 72.264 205.339 72.188 287.699 0h50.86v-15h-56.588z"/><path d="m446.99 282.08v15h50.01v145.5h-31.29v15h46.29v-175.5z"/><path d="m440 386.75v-15h-37.631c14.864-25.984 22.131-54.732 22.131-83.5 0-92.911-75.589-168.5-168.5-168.5-49.649 0-96.538 21.75-128.644 59.674l11.448 9.691c29.25-34.55 71.967-54.365 117.196-54.365 84.64 0 153.5 68.859 153.5 153.5 0 29.007-8.108 57.984-24.689 83.5h-25.936c19.037-23.495 29.706-53.09 29.706-83.5 0-73.105-59.476-132.58-132.581-132.58s-132.58 59.476-132.58 132.58c0 30.41 10.669 60.005 29.706 83.5h-25.937c-16.58-25.514-24.689-54.49-24.689-83.5 0-31.578 9.513-61.904 27.511-87.698l-12.302-8.584c-37.806 54.186-39.733 124.447-8.078 179.782h-38.631v15zm-176.167-90.962c13.509.716 24.28 11.931 24.28 25.615v6.396c0 15.094-10.471 27.783-24.53 31.201.139-21.051.223-42.141.25-63.212zm-14.985-15.055c-13.826-.369-24.962-11.722-24.962-25.635v-6.396c0-15.189 10.604-27.94 24.795-31.262.111 21.01.168 42.127.167 63.293zm-110.428 7.517c0-64.834 52.746-117.58 117.58-117.58s117.581 52.746 117.581 117.58c0 31.692-12.367 61.229-34.889 83.5h-65.753c17.632-6.819 30.175-23.942 30.175-43.951v-6.396c0-21.951-17.491-39.882-39.266-40.617.002-21.155-.056-42.261-.165-63.262 13.499 3.327 24.431 15.45 24.431 31.639h15c0-24.571-17.695-43.402-39.522-46.954-.03-4.544-.057-9.094-.092-13.625l-15 .115c.035 4.482.061 8.983.091 13.477-22.47 3.565-39.704 23.068-39.704 46.526v6.396c0 22.179 17.857 40.255 39.947 40.634-.028 21.103-.112 42.223-.25 63.306-13.716-3.257-24.697-15.504-24.697-31.7h-15c0 20.723 12.639 37.63 30.175 44.412h-65.752c-22.523-22.27-34.89-51.806-34.89-83.5z"/></g><g><g><path d="m168.508 282.08h15v15h-15z"/></g><g><path d="m328.508 282.08h15v15h-15z"/></g></g></g></svg>