<?xml version="1.0" encoding="iso-8859-1"?>
<!-- Generator: Adobe Illustrator 19.0.0, SVG Export Plug-In . SVG Version: 6.00 Build 0)  -->
<svg version="1.1" id="Capa_1" xmlns="http://www.w3.org/2000/svg" xmlns:xlink="http://www.w3.org/1999/xlink" x="0px" y="0px"
	 viewBox="0 0 468.4 468.4" style="enable-background:new 0 0 468.4 468.4;" xml:space="preserve">
<g>
	<g>
		<path d="M114.7,119.65C51.4,119.65,0,170.95,0,234.25s51.3,114.6,114.6,114.6s114.6-51.3,114.7-114.6
			C229.3,170.95,178,119.65,114.7,119.65z M114.7,328.85c-52.3,0-94.6-42.4-94.7-94.6c0-52.3,42.4-94.6,94.6-94.6
			c52.2,0,94.7,42.3,94.7,94.6S166.9,328.85,114.7,328.85z"/>
	</g>
</g>
<g>
	<g>
		<path d="M114.6,224.25c-7.1,0-12.9-5.8-12.9-12.9c0-7.1,5.8-12.9,12.9-12.9c7.1,0,12.9,5.8,12.9,12.9c0,5.5,4.5,10,10,10
			s10-4.5,10-10c0.2-14.5-9.3-27.4-23.3-31.4v-3c0-5.5-4.5-10-10-10s-10,4.5-10,10v3.3c-17.2,5.8-26.5,24.4-20.8,41.6
			c4.5,13.4,17.1,22.4,31.2,22.4c7.1,0,12.9,5.7,12.9,12.9c0,7.2-5.7,12.9-12.9,12.9c-7.2,0-12.9-5.7-12.9-12.9c0-5.5-4.5-10-10-10
			s-10,4.5-10,10c0,14.1,9.1,26.7,22.5,31.2v3.3c0,5.5,4.5,10,10,10s10-4.5,10-10.1v-3c14-4.1,23.5-16.9,23.3-31.4
			C147.5,238.95,132.8,224.25,114.6,224.25z"/>
	</g>
</g>
<g>
	<g>
		<path d="M353.7,119.65c-63.3,0-114.6,51.3-114.6,114.6s51.3,114.6,114.6,114.6s114.7-51.3,114.7-114.6
			C468.3,170.95,417,119.65,353.7,119.65z M353.7,328.85c-52.3,0-94.6-42.4-94.6-94.6c0-52.3,42.4-94.6,94.6-94.6
			c52.3,0,94.6,42.4,94.6,94.6S406,328.85,353.7,328.85z"/>
	</g>
</g>
<g>
	<g>
		<path d="M400,282.25c-1.6-5.2-7.2-8.2-12.5-6.6l-5.9,1.8c-5.8,1.8-12.1,1.3-17.5-1.5c-6.1-3.1-12.8-4.7-19.6-4.7
			c-0.5,0-1.1,0-1.6,0c1.7-4.4,2.7-9.1,3.1-13.8c0-0.2,0-0.5,0-0.7c0.2-2.4,0.3-4.5,0.3-7.5h18.2c5.5,0,10-4.5,10-10s-4.5-10-10-10
			h-19.6c-0.5-3-1.2-6.7-2-10c-1.1-4.3-1.7-8.8-1.9-13.2c0-2.1,0.4-4.2,1.2-6.1c1.5-3.9,4.5-7,8.4-8.6c2.2-0.9,4.5-1.3,6.9-1.3
			c11.6,0,14.4,6.1,15.5,11.3c1.1,5.4,6.4,8.9,11.8,7.8c5.4-1.1,8.9-6.4,7.8-11.8c0-0.1,0-0.1,0-0.2c-3.7-17.3-16.5-27.1-35.1-27.1
			c-5,0-10,0.9-14.7,2.8c-4.4,1.8-8.3,4.5-11.7,7.9l-0.1,0.1c-3.2,3.3-5.7,7.3-7.4,11.6s-2.6,9-2.6,13.6c0.1,6,0.9,12,2.4,17.8
			c0.4,1.8,0.8,3.4,1.2,5.4h-17.4c-5.5,0-10,4.5-10,10s4.5,10,10,10h19.2c0,2-0.1,4.2-0.3,6.2c0,0.2,0,0.5,0,0.7
			c-0.5,5.5-2.5,10.7-5.7,15.2l-4.5,6.1c-3.3,4.5-2.3,10.7,2.1,14c2,1.5,4.6,2.2,7.1,1.9l16.6-2c1-0.1,1.9-0.2,2.9-0.2
			c3.7,0,7.2,0.9,10.5,2.5c10,5.2,21.7,6.2,32.4,2.9l5.8-1.8C398.6,293.15,401.6,287.55,400,282.25z"/>
	</g>
</g>
<g>
	<g>
		<path d="M354.5,47.95l-39.8-39.7c-3.9-3.9-10.2-3.9-14.1,0c-3.9,4-3.9,10.3,0,14.3l22.6,22.7H145.1c-30.3,0-54.8,24.4-54.9,54.7
			c0,5.4,4.4,9.8,9.9,9.8c0,0,0,0,0.1,0c5.4,0.1,9.9-4.3,10-9.7v-0.1c0-19.2,15.6-34.8,34.8-34.7h178.2l-22.6,22.4
			c-3.9,3.9-3.9,10.2,0,14.1s10.2,3.9,14.1,0l39.8-39.6C358.4,58.25,358.4,51.95,354.5,47.95z"/>
	</g>
</g>
<g>
	<g>
		<path d="M368.3,358.75c0,0,0,0-0.1,0c-5.4-0.1-9.9,4.3-10,9.7v0.1c0,19.2-15.6,34.8-34.8,34.7H145.2l22.6-22.4
			c3.9-3.8,3.9-10.1,0.1-14c0,0,0,0-0.1-0.1c-3.9-3.9-10.2-3.9-14.1,0l-39.8,39.6c-3.9,3.9-3.9,10.3,0,14.2l39.8,39.6
			c3.9,3.9,10.2,3.9,14.1,0c3.9-4,3.9-10.3,0-14.3l-22.6-22.6h178.1c30.3,0,54.8-24.4,54.9-54.7
			C378.2,363.15,373.8,358.75,368.3,358.75z"/>
	</g>
</g>
<g>
</g>
<g>
</g>
<g>
</g>
<g>
</g>
<g>
</g>
<g>
</g>
<g>
</g>
<g>
</g>
<g>
</g>
<g>
</g>
<g>
</g>
<g>
</g>
<g>
</g>
<g>
</g>
<g>
</g>
</svg>
